<?xml version="1.0" encoding="utf-8"?>
<!-- Generator: Adobe Illustrator 23.0.2, SVG Export Plug-In . SVG Version: 6.00 Build 0)  -->
<svg version="1.1" id="Layer_1" xmlns="http://www.w3.org/2000/svg" xmlns:xlink="http://www.w3.org/1999/xlink" x="0px" y="0px"
	 viewBox="0 0 232.0174 264.0233" enable-background="new 0 0 232.0174 264.0233" xml:space="preserve">
<g>
	<path d="M230.8913,89.6379c-4.3985,1.1351-10.4822-0.3031-13.561-16.7894c-2.0336-10.8895-6.691-16.0059-11.8184-18.2753
		c-0.008,0.8184-0.0571,1.6439-0.1516,2.4745c-0.3632,3.1942-1.3495,6.1679-2.8187,8.819
		c2.9158,7.4533,3.7299,19.7597,11.0823,24.7761C226.234,99.2463,235.2898,88.5029,230.8913,89.6379z"/>
	<path d="M196.3656,158.4947c0.3091-2.7188,0.3276-4.6274,0.1257-5.93c-0.0803-5.1493-1.4594-8.8972-2.7073-12.8045l-20.8235,3.1895
		c-0.4385,0.0684-0.8906,0.1025-1.3408,0.1025c-4.3027,0-8.0391-3.2109-8.6904-7.4688c-0.3564-2.3232,0.2139-4.6465,1.6055-6.541
		s3.4375-3.1338,5.7607-3.4893l22.2657-3.4111c1.0878-4.7802,3.1676-10.1921,5.364-15.1265
		c1.3278,4.3824,2.7802,10.0554,3.6193,16.0776l-30.9014,4.7334c-3.5479,0.543-5.9844,3.8604-5.4404,7.4092
		c0.4922,3.2148,3.2617,5.5166,6.417,5.5166c0.3271,0,0.6582-0.0244,0.9922-0.0762l37-5.667
		c3.3193-0.5078,5.7051-3.4619,5.5039-6.8145c-1.0537-17.5645-7.8682-34.0479-8.1572-34.7412
		c-0.2981-0.7131-0.7134-1.3392-1.2068-1.878c0.0021-0.0037,0.011-0.0191,0.011-0.0191s-7.1789-8.7156-27.0295-10.9724
		c-6.2646-0.7122-11.4411-0.5134-15.596,0.0911c-0.0696-0.0216-0.1361-0.0486-0.207-0.0681l-6.0671-1.6626l-27.577-7.5571
		l-13.0418-30.3987c-0.0895,0.2758-0.1879,0.5506-0.3044,0.8222l-6.7444,15.7206l9.3782,21.8598
		c0.7803,1.8193,2.3472,3.1836,4.2559,3.7061l25.3653,6.9506l3.3543,0.9191c2.1979,8.3521,5.6614,23.79,3.9023,32.56
		c-2.0466,10.1993-7.8351,13.7075-10.1818,23.2143c-0.4891,1.224-0.8995,3.0881-1.2086,5.8069
		c-0.0067,0.0593-0.0131,0.1223-0.0198,0.1821l-0.001-0.0001l-3.8851,15.1486l-0.5882,2.2934l-5.6915,22.1915
		c0,0,25.5645,4.7935,31.5261,5.4713c5.9616,0.6777,31.9497,1.7452,31.9497,1.7452l-0.5525-22.4072l-0.0646-2.6172l-0.3913-15.8699
		C196.3502,158.623,196.3585,158.5571,196.3656,158.4947z"/>
	<path d="M134.6218,195.5548l-12.4117,56.3141c-1.1885,5.3936,2.2197,10.7295,7.6133,11.918
		c0.7251,0.1602,1.4487,0.2363,2.1616,0.2363c4.5908,0,8.7275-3.1816,9.7563-7.8496l12.5759-57.0589
		C146.7864,197.8109,137.9236,196.1698,134.6218,195.5548z"/>
	<path d="M176.9275,201.6252l3.9945,53.0845c0.395,5.2529,4.7788,9.25,9.9609,9.25c0.252,0,0.5059-0.0088,0.7612-0.0283
		c5.5073-0.4141,9.6357-5.2148,9.2212-10.7217l-3.8105-50.6394C195.5061,202.5061,185.5502,202.0897,176.9275,201.6252z"/>
	<path d="M184.1413,32.9969c-11.7981-1.3413-22.4497,7.1356-23.791,18.9338c-1.3413,11.7981,7.1356,22.4497,18.9337,23.791
		s22.4497-7.1356,23.7911-18.9337C204.4164,44.9899,195.9395,34.3382,184.1413,32.9969z M167.4058,59.5363
		c0,0,13.8719,5.1734,23.7925,1.0233C191.1983,60.5596,178.7014,78.1296,167.4058,59.5363z"/>
	<path d="M129.7872,7.0672c-0.5381-0.3486-1.2383-0.3164-1.7432,0.0801l-10.0146,7.8828L114.632,1.1424
		c-0.1499-0.6123-0.667-1.0664-1.2944-1.1348c-0.6226-0.0625-1.23,0.2637-1.5083,0.8291l-5.9038,11.9951L95.6549,1.991
		c-0.4468-0.4727-1.144-0.6025-1.731-0.3242c-0.5864,0.2773-0.9277,0.9004-0.8462,1.5439l1.917,15.0938L84.067,14.9959
		c-0.5972-0.1836-1.2451,0.0273-1.6255,0.5234c-0.3799,0.4961-0.4126,1.1758-0.082,1.7061l5.144,8.252L74.507,26.491
		c-0.6494,0.0508-1.1924,0.5146-1.3428,1.1484c-0.1504,0.6348,0.1255,1.293,0.6831,1.6299l11.9194,7.208
		c0.2427,0.1475,0.5107,0.2168,0.7749,0.2168c0.5078,0,1.0029-0.2578,1.2852-0.7236c0.4287-0.709,0.2012-1.6309-0.5073-2.0596
		l-7.9243-4.792l10.8052-0.8428c0.5225-0.04,0.9858-0.3506,1.2222-0.8184s0.2114-1.0254-0.0659-1.4707l-4.3413-6.9639l9.3242,2.8223
		c0.4839,0.1465,1.0137,0.0381,1.4028-0.29c0.3882-0.3281,0.584-0.8301,0.52-1.335L96.632,7.3846l8.5981,9.0752
		c0.3374,0.3564,0.8296,0.5234,1.314,0.4521c0.4854-0.0742,0.9038-0.3809,1.1206-0.8213l5.0337-10.2266l2.9707,12.1426
		c0.1211,0.4951,0.4858,0.8955,0.9683,1.0615c0.4829,0.166,1.0161,0.0762,1.4165-0.2393l8.3965-6.6094l-3.3672,13.4473
		c-0.1123,0.4482-0.0117,0.9229,0.2729,1.2871c0.2842,0.3643,0.7202,0.5771,1.1821,0.5771h0.0005l7.9072-0.0029l-5.5469,5.4238
		c-0.5923,0.5791-0.603,1.5283-0.0235,2.1211c0.5786,0.5928,1.5283,0.6025,2.1211,0.0234l8.1792-7.998
		c0.436-0.4258,0.5703-1.0742,0.3398-1.6387c-0.23-0.5645-0.7788-0.9336-1.3887-0.9336h-0.0005l-9.666,0.0039l3.9663-15.8398
		C130.5826,8.0682,130.3258,7.4158,129.7872,7.0672z"/>
	<path d="M19.7797,124.0425l-6.1966-0.949c0.8391-6.0222,2.2914-11.6951,3.619-16.0776c0.6434,1.4454,1.2753,2.9302,1.8772,4.4305
		c2.3005,5.7344,4.138,11.6622,4.2674,16.2107c0.2949,10.3984-4.5581,15.1167-4.7109,24.9077
		c-0.2021,1.3022-0.1836,3.2109,0.1255,5.9297c0.0073,0.0635,0.0205,0.1187,0.0283,0.1812l-0.0054,0.0005l-1.0083,40.9038
		c0,0,25.9878-1.0674,31.9497-1.7451c5.9614-0.6777,31.5259-5.4712,31.5259-5.4712l-10.165-39.6333l-0.0073,0.0005
		c-0.0063-0.0625-0.0059-0.1191-0.0132-0.1826c-0.3091-2.7188-0.7197-4.583-1.2085-5.8066
		c-2.3467-9.5068-8.1353-13.0151-10.1821-23.2148c-1.9648-9.7959,2.5869-27.9165,4.6113-35.1802l27.4854-5.1284
		c2.1328-0.3975,3.9258-1.833,4.7813-3.8271l16.6299-38.7627c1.415-3.2988-0.1123-7.1211-3.4111-8.5361
		c-3.2959-1.415-7.1211,0.1113-8.5361,3.4111L85.9752,71.0757l-50.4326,9.4102c-0.4438,0.083-0.8687,0.2095-1.2715,0.3735
		c-2.1682,0.3102-4.1678,0.6998-6.0173,1.1421c-13.7073,3.2783-18.8895,9.5552-18.8895,9.5552s0.0091,0.0157,0.0113,0.0195
		c-0.4933,0.5389-0.9087,1.1649-1.2065,1.8777c-0.2896,0.6934-7.1035,17.1768-8.1572,34.7412
		c-0.2012,3.3525,2.1846,6.3066,5.5044,6.8145l13.5143,2.0695c0.8148-2.7797,1.4212-5.672,1.3167-9.3374
		C20.3209,126.8148,20.0914,125.4784,19.7797,124.0425z"/>
	<path d="M60.8097,199.1148l12.5761,57.0589c1.0288,4.6689,5.165,7.8496,9.7563,7.8496c0.7129,0,1.437-0.0762,2.1616-0.2363
		c5.3936-1.1885,8.8022-6.5244,7.6133-11.918l-12.412-56.3141c-2.3978,0.4469-7.7267,1.4341-13.3537,2.4415
		C65.03,198.3761,62.8715,198.7578,60.8097,199.1148z"/>
	<path d="M14.2613,253.2098c-0.4146,5.5069,3.7139,10.3076,9.2212,10.7217c0.2554,0.0195,0.5093,0.0283,0.7612,0.0283
		c5.1816,0,9.5659-3.998,9.9609-9.25l3.9945-53.0845c-8.6224,0.4648-18.578,0.8815-20.1273,0.9453L14.2613,253.2098z"/>
	<path d="M35.843,75.7217c11.7981-1.3413,20.275-11.9929,18.9337-23.791c-1.3413-11.7982-11.9929-20.2751-23.791-18.9338
		c-2.2334,0.2539-4.347,0.8427-6.2983,1.7085c4.8986,1.7806,8.6255,6.2142,9.2021,11.7371
		c0.8044,7.7052-4.8099,14.6282-12.5151,15.4326c-3.171,0.3311-6.2011-0.4382-8.7352-1.9797
		C15.3279,70.0352,25.1097,76.942,35.843,75.7217z"/>
	<ellipse transform="matrix(0.6299 -0.7767 0.7767 0.6299 -29.8337 33.1984)" cx="19.9156" cy="47.9013" rx="11.75" ry="11.75"/>
</g>
</svg>
